<svg width="32" height="32" viewBox="0 0 32 32" fill="none" xmlns="http://www.w3.org/2000/svg">
<rect width="32" height="32" fill="black"/>
<path d="M3.31028 27.5946H4.62548V25.0496H3.31028V23.9273H4.62548V21.6179H3.31028V20.494H4.62548V18.1238H3.31028V17.0032H4.62548V14.6322H3.31028V13.5091H4.62548V11.3721H3.31028V10.2515H4.62548V6.35017H2V30.6987H4.62548V28.7202H3.31028V27.5946Z" fill="white"/>
<path d="M5.73708 10.2514H4.62547V11.3721H5.73708V10.2514Z" fill="white"/>
<path d="M5.73708 13.5091H4.62547V14.6313H5.73708V13.5091Z" fill="white"/>
<path d="M5.73708 17.0032H4.62547V18.1238H5.73708V17.0032Z" fill="white"/>
<path d="M5.73708 20.4939H4.62547V21.6179H5.73708V20.4939Z" fill="white"/>
<path d="M5.73708 23.9273H4.62547V25.0495H5.73708V23.9273Z" fill="white"/>
<path d="M5.73708 27.5946H4.62547V28.7201H5.73708V27.5946Z" fill="white"/>
<path d="M25.3716 28.2103V4.43728C25.3716 3.68773 24.4324 3.4989 24.4324 3.4989H4.64437C2.92442 3.4989 2.25532 4.6261 2 5.50044H4.83401H22.3684C23.43 5.50044 23.4012 6.43554 23.4012 6.43554V28.1693H22.1681V6.35015H5.73709V10.2514H6.86265V11.3721H5.73709V13.5099H6.86265V14.6322H5.73709V17.004H6.86265V18.1246H5.73709V20.4948H6.86265V21.6187H5.73709V23.9273H6.86265V25.0495H5.73709V27.5946H6.86265V28.7201H5.73709V30.6987H22.1689V29.2702H23.3741V29.2735L24.3683 29.2702C25.4479 29.2702 25.3716 28.2103 25.3716 28.2103ZM19.05 16.3521C18.2726 17.1279 17.2636 17.4251 16.5699 17.1476L16.6126 17.1928L15.1578 18.65L18.4154 21.9068C18.4154 21.9068 18.5041 22.6236 17.6971 22.6236L14.4378 19.3684L11.1687 22.6408C11.1687 22.6408 10.4479 22.7336 10.4479 21.9241L13.7244 18.65L12.2491 17.1764L12.2565 17.1649C11.5857 17.4342 11.172 17.7149 10.4405 17.0319L10.438 17.0368L8.23204 14.83L8.58177 14.4737L10.8936 16.435L11.3074 16.0147L9.18601 13.7874L9.52261 13.4491L11.7434 15.5837L12.2327 15.0944L10.2122 12.8482L10.5809 12.4796L12.7852 14.6872V14.6905C13.4674 15.4187 13.1891 15.8324 12.9182 16.5056L12.965 16.4572L14.4378 17.9325L15.8975 16.4769L15.9065 16.4835C15.6258 15.7906 15.9254 14.7791 16.7012 14.0033C17.6462 13.0592 18.9368 12.8219 19.582 13.4697C20.2306 14.1174 19.9934 15.408 19.05 16.3521Z" fill="white"/>
<path d="M22.213 4.32481L24.6633 1.14764C24.7177 1.07713 24.7871 1.02912 24.8626 1.00968C24.938 0.990234 25.0163 1.00023 25.0874 1.0384C25.1585 1.07658 25.2193 1.14122 25.262 1.22416C25.3048 1.3071 25.3277 1.40462 25.3278 1.5044V12.1937C25.3277 12.2935 25.3048 12.391 25.262 12.4739C25.2193 12.5569 25.1585 12.6215 25.0874 12.6597C25.0163 12.6979 24.938 12.7079 24.8626 12.6884C24.7871 12.669 24.7177 12.621 24.6633 12.5504L22.213 9.37327H21.0501C20.5933 9.37327 20.1655 9.032 20.0441 8.46186C19.9327 7.93643 19.8765 7.39394 19.8769 6.84904C19.8769 6.29035 19.935 5.74982 20.0441 5.23623C20.1655 4.66541 20.5933 4.32481 21.0501 4.32481H22.213Z" fill="#059769"/>
<path d="M28.6315 2.56525C29.0654 3.12781 29.4095 3.79565 29.6443 4.53067C29.8791 5.26568 30 6.05347 30 6.84904C30 7.64462 29.8791 8.4324 29.6443 9.16742C29.4095 9.90243 29.0654 10.5703 28.6315 11.1328M27.2553 4.35039C27.7663 5.01311 28.0534 5.91189 28.0534 6.84904C28.0534 7.7862 27.7663 8.68497 27.2553 9.3477M22.213 4.32481L24.6633 1.14764C24.7177 1.07713 24.7871 1.02912 24.8626 1.00968C24.938 0.990234 25.0163 1.00023 25.0874 1.0384C25.1585 1.07658 25.2193 1.14122 25.262 1.22416C25.3048 1.3071 25.3277 1.40462 25.3278 1.5044V12.1937C25.3277 12.2935 25.3048 12.391 25.262 12.4739C25.2193 12.5569 25.1585 12.6215 25.0874 12.6597C25.0163 12.6979 24.938 12.7079 24.8626 12.6884C24.7871 12.669 24.7177 12.621 24.6633 12.5504L22.213 9.37327H21.0501C20.5933 9.37327 20.1655 9.032 20.0441 8.46186C19.9327 7.93643 19.8765 7.39394 19.8769 6.84904C19.8769 6.29035 19.935 5.74982 20.0441 5.23623C20.1655 4.66541 20.5933 4.32481 21.0501 4.32481H22.213Z" stroke="#059769" stroke-width="0.5" stroke-linecap="round" stroke-linejoin="round"/>
</svg>
