<svg width="512" height="512" viewBox="0 0 512 512" fill="none" xmlns="http://www.w3.org/2000/svg">
<g clip-path="url(#clip0_3_45)">
<rect x="3" y="3" width="506" height="506" rx="47" fill="black" stroke="#059769" stroke-width="6"/>
<path d="M147.633 364.703H161.317V338.224H147.633V326.547H161.317V302.519H147.633V290.825H161.317V266.165H147.633V254.505H161.317V229.836H147.633V218.151H161.317V195.916H147.633V184.257H161.317V143.666H134V397H161.317V376.414H147.633V364.703Z" fill="white"/>
<path d="M172.882 184.257H161.317V195.916H172.882V184.257Z" fill="white"/>
<path d="M172.882 218.151H161.317V229.827H172.882V218.151Z" fill="white"/>
<path d="M172.882 254.505H161.317V266.164H172.882V254.505Z" fill="white"/>
<path d="M172.882 290.825H161.317V302.519H172.882V290.825Z" fill="white"/>
<path d="M172.882 326.547H161.317V338.224H172.882V326.547Z" fill="white"/>
<path d="M172.882 364.703H161.317V376.414H172.882V364.703Z" fill="white"/>
<path d="M377.169 371.11V123.763C377.169 115.965 367.397 114 367.397 114H161.513C143.618 114 136.657 125.728 134 134.825H163.486H345.923C356.968 134.825 356.669 144.554 356.669 144.554V370.683H343.839V143.666H172.882V184.257H184.593V195.916H172.882V218.159H184.593V229.836H172.882V254.513H184.593V266.173H172.882V290.833H184.593V302.527H172.882V326.547H184.593V338.224H172.882V364.703H184.593V376.414H172.882V397H343.848V382.137H356.387V382.171L366.731 382.137C377.964 382.137 377.169 371.11 377.169 371.11ZM311.397 247.731C303.308 255.803 292.81 258.895 285.592 256.008L286.036 256.478L270.9 271.64L304.794 305.525C304.794 305.525 305.717 312.982 297.32 312.982L263.409 279.114L229.395 313.162C229.395 313.162 221.896 314.127 221.896 305.705L255.986 271.64L240.636 256.307L240.713 256.188C233.735 258.989 229.43 261.911 221.819 254.804L221.793 254.855L198.841 231.895L202.48 228.187L226.534 248.594L230.839 244.22L208.767 221.046L212.269 217.527L235.375 239.736L240.466 234.645L219.444 211.275L223.279 207.439L246.214 230.408V230.442C253.313 238.019 250.417 242.324 247.598 249.329L248.085 248.825L263.409 264.174L278.596 249.03L278.69 249.098C275.769 241.889 278.887 231.365 286.959 223.293C296.791 213.47 310.218 211.001 316.932 217.741C323.68 224.48 321.212 237.908 311.397 247.731Z" fill="white"/>
<path d="M374.953 200.076C374.953 209.165 336.311 171.872 329.445 171.872C322.579 171.872 321.103 144.303 323.721 134.018C331.735 128.823 365.51 97.649 372.377 97.649C379.243 97.649 374.953 190.988 374.953 200.076Z" fill="#059769"/>
<path d="M411.088 104.286C415.602 110.139 419.182 117.087 421.625 124.735C424.068 132.382 425.326 140.579 425.326 148.856C425.326 157.134 424.068 165.33 421.625 172.978C419.182 180.625 415.602 187.574 411.088 193.427M396.769 122.859C402.086 129.754 405.073 139.106 405.073 148.856C405.073 158.607 402.086 167.958 396.769 174.854M344.306 122.593L369.8 89.5362C370.367 88.8025 371.088 88.303 371.873 88.1007C372.659 87.8984 373.473 88.0024 374.212 88.3996C374.952 88.7968 375.585 89.4693 376.03 90.3322C376.475 91.1952 376.713 92.2098 376.714 93.2481V204.465C376.713 205.503 376.475 206.517 376.03 207.38C375.585 208.243 374.952 208.916 374.212 209.313C373.473 209.71 372.659 209.814 371.873 209.612C371.088 209.41 370.367 208.91 369.8 208.176L344.306 175.12H332.207C327.454 175.12 323.003 171.569 321.739 165.637C320.581 160.17 319.996 154.526 320 148.856C320 143.043 320.605 137.42 321.739 132.076C323.003 126.137 327.454 122.593 332.207 122.593H344.306Z" stroke="#059769" stroke-width="14" stroke-linecap="round" stroke-linejoin="round"/>
</g>
<defs>
<clipPath id="clip0_3_45">
<rect width="512" height="512" fill="white"/>
</clipPath>
</defs>
</svg>
